<?xml version="1.0" encoding="UTF-8" standalone="no"?><!DOCTYPE svg PUBLIC "-//W3C//DTD SVG 1.1//EN" "http://www.w3.org/Graphics/SVG/1.1/DTD/svg11.dtd"><svg width="100%" height="100%" viewBox="0 0 128 128" version="1.1" xmlns="http://www.w3.org/2000/svg" xmlns:xlink="http://www.w3.org/1999/xlink" xml:space="preserve" xmlns:serif="http://www.serif.com/" style="fill-rule:evenodd;clip-rule:evenodd;stroke-linejoin:round;stroke-miterlimit:2;"><rect id="icon" x="0" y="0" width="128" height="128" style="fill:none;"/><g id="Layer-1" serif:id="Layer 1"><g><path d="M124,95.218l-120,0l0,-62.436l120,0l0,62.436Zm-117.026,-2.972l114.052,0l0,-56.49l-114.052,0l0,56.49Zm8.723,-46.927l18.316,0l0,2.351l-1.999,0c-1.367,0 -2.273,0.136 -2.72,0.405c-0.446,0.27 -0.67,0.624 -0.67,1.061c0,0.406 0.188,1.079 0.566,2.023l9.388,22.65l7.693,-19.338c0.514,-1.298 0.77,-2.503 0.77,-3.615c0,-1.046 -0.312,-1.837 -0.936,-2.377c-0.625,-0.539 -1.568,-0.809 -2.833,-0.809l-1.695,0l0,-2.351l14.471,0l0,2.351l-1.089,0c-0.928,0 -1.757,0.32 -2.491,0.962c-0.735,0.64 -1.439,1.786 -2.114,3.437l-12.731,31.449l-3.019,0l-13.695,-33.041c-0.456,-1.129 -0.979,-1.88 -1.569,-2.251c-0.591,-0.37 -1.542,-0.556 -2.859,-0.556l-0.784,0l0,-2.351Zm48.442,29.35c1.214,0 2.241,0.429 3.086,1.29c0.842,0.86 1.263,1.896 1.263,3.109c0,1.214 -0.421,2.251 -1.263,3.111c-0.845,0.859 -1.865,1.289 -3.061,1.289c-1.198,0 -2.221,-0.43 -3.074,-1.289c-0.852,-0.86 -1.278,-1.897 -1.278,-3.111c0,-1.213 0.422,-2.249 1.265,-3.109c0.844,-0.861 1.864,-1.29 3.062,-1.29Zm38.043,-26.518l1.746,-3.717l1.872,0l0.632,14.992l-2.327,0c-0.725,-4.315 -2.09,-7.516 -4.099,-9.606c-2.007,-2.09 -4.3,-3.135 -6.881,-3.135c-2.832,0 -5.177,1.347 -7.032,4.042c-1.854,2.694 -2.782,6.946 -2.782,12.756c0,6.147 1.018,10.713 3.06,13.693c1.637,2.341 4.049,3.51 7.235,3.51c3.188,0 5.87,-1.17 8.045,-3.513c1.568,-1.702 2.665,-4.214 3.289,-7.534l2.276,0c-0.54,4.263 -2.166,7.633 -4.881,10.112c-2.716,2.477 -6.056,3.717 -10.017,3.717c-5.13,0 -9.426,-1.806 -12.891,-5.42c-3.466,-3.612 -5.2,-8.24 -5.2,-13.883c0,-6.264 2,-11.267 5.996,-15.006c3.408,-3.184 7.396,-4.775 11.968,-4.775c1.803,0 3.477,0.283 5.02,0.846c1.544,0.566 3.2,1.54 4.971,2.921Zm-37.132,23.637l-1.872,0c0,-2.342 -0.123,-4.39 -0.368,-6.151c-0.244,-1.759 -0.864,-4.768 -1.859,-9.028c-0.809,-3.503 -1.214,-5.843 -1.214,-7.021c0,-1.618 0.408,-2.888 1.226,-3.815c0.819,-0.926 1.868,-1.388 3.149,-1.388c1.266,0 2.307,0.467 3.124,1.402c0.819,0.933 1.228,2.176 1.228,3.724c0,0.994 -0.422,3.376 -1.264,7.148c-0.979,4.378 -1.583,7.413 -1.808,9.105c-0.23,1.692 -0.342,3.701 -0.342,6.024Z" style="fill-rule:nonzero;"/></g></g></svg>